<svg width="32" height="32" viewBox="0 0 32 32" fill="none" xmlns="http://www.w3.org/2000/svg">
<path d="M6.39998 25.6V22.4H3.19998V25.6H1.59998V17.6H3.19998V20.8H6.39998V17.6H7.99998V25.6H6.39998Z" fill="black"/>
<path d="M11.2 25.6V19.2H8.95996V17.6H14.88V19.2H12.8V25.6H11.2Z" fill="black"/>
<path d="M16 25.6V17.6H17.6L19.84 23.04H20L22.4 17.6H24V25.6H22.4V20.64H22.24L20.48 24.64H19.52L17.76 20.64H17.6V25.6H16Z" fill="black"/>
<path d="M30.4 25.6H25.6V17.6H27.2V24H30.4V25.6Z" fill="black"/>
<path d="M15.04 6.71999L11.36 10.4L15.04 14.08L14.08 16L8.47998 10.4L14.08 4.79999L15.04 6.71999ZM16.96 14.08L20.64 10.4L16.96 6.71999L17.92 4.79999L23.52 10.4L17.92 16L16.96 14.08Z" fill="black"/>
</svg>
