<svg width="16" height="16" viewBox="0 0 16 16" fill="none" xmlns="http://www.w3.org/2000/svg">
<path d="M9.02935 6.9707C8.48328 6.42486 7.74278 6.11823 6.97068 6.11823C6.19858 6.11823 5.45809 6.42486 4.91202 6.9707L2.85268 9.02937C2.3066 9.57545 1.99982 10.3161 1.99982 11.0884C1.99982 11.8606 2.3066 12.6013 2.85268 13.1474C3.39876 13.6935 4.13941 14.0002 4.91168 14.0002C5.68396 14.0002 6.4246 13.6935 6.97068 13.1474L8.00002 12.118" stroke="black" stroke-linecap="round" stroke-linejoin="round"/>
<path d="M6.9707 9.02935C7.51677 9.57519 8.25727 9.88183 9.02937 9.88183C9.80147 9.88183 10.542 9.57519 11.088 9.02935L13.1474 6.97068C13.6934 6.4246 14.0002 5.68396 14.0002 4.91168C14.0002 4.13941 13.6934 3.39876 13.1474 2.85268C12.6013 2.3066 11.8606 1.99982 11.0884 1.99982C10.3161 1.99982 9.57545 2.3066 9.02937 2.85268L8.00004 3.88202" stroke="black" stroke-linecap="round" stroke-linejoin="round"/>
</svg>
