<svg width="32" height="32" viewBox="0 0 32 32" fill="none" xmlns="http://www.w3.org/2000/svg">
<g clip-path="url(#clip0)">
<path d="M16 31.9416C15.544 31.9416 15.12 31.8229 14.724 31.6176L10.6853 29.3003C10.0786 28.9776 10.3826 28.8603 10.5653 28.8016C11.384 28.5376 11.536 28.4789 12.3866 28.0083C12.4773 27.9496 12.6 27.9789 12.6906 28.0376L15.788 29.8283C15.908 29.8869 16.0613 29.8869 16.152 29.8283L28.268 23.0496C28.388 22.9909 28.4493 22.8736 28.4493 22.7269V9.19893C28.4493 9.05227 28.3893 8.93493 28.268 8.87627L16.152 2.12827C16.0306 2.0696 15.8786 2.0696 15.788 2.12827L3.67198 8.87627C3.55065 8.93493 3.48931 9.0816 3.48931 9.19893V22.7269C3.48931 22.8443 3.55065 22.9909 3.67198 23.0496L6.98131 24.8989C8.77331 25.7789 9.89598 24.7523 9.89598 23.7256V10.3736C9.89598 10.1976 10.048 10.0216 10.2613 10.0216H11.8093C11.992 10.0216 12.1733 10.1683 12.1733 10.3736V23.7243C12.1733 26.0429 10.868 27.3923 8.59065 27.3923C7.89198 27.3923 7.34531 27.3923 5.79731 26.6589L2.60931 24.8989C2.22516 24.6877 1.90436 24.3777 1.68004 24.0011C1.45573 23.6244 1.33603 23.1947 1.33331 22.7563V9.22827C1.33331 8.34827 1.81865 7.52693 2.60931 7.08693L14.7253 0.306933C15.1198 0.104648 15.5567 -0.000854492 16 -0.000854492C16.4433 -0.000854492 16.8802 0.104648 17.2746 0.306933L29.392 7.0856C30.1813 7.5256 30.6666 8.34693 30.6666 9.22693V22.7549C30.6666 23.6349 30.1813 24.4563 29.392 24.8976L17.2746 31.6749C16.8723 31.8493 16.4385 31.9392 16 31.9389V31.9416ZM19.7346 22.6389C14.4213 22.6389 13.328 20.2923 13.328 18.2963C13.328 18.1203 13.48 17.9443 13.692 17.9443H15.2706C15.4533 17.9443 15.604 18.0616 15.604 18.2376C15.848 19.7923 16.5466 20.5549 19.7653 20.5549C22.316 20.5549 23.4093 19.9976 23.4093 18.6776C23.4093 17.9149 23.1053 17.3576 19.128 16.9763C15.8173 16.6523 13.7533 15.9496 13.7533 13.3963C13.7533 11.0189 15.8173 9.6096 19.28 9.6096C23.1666 9.6096 25.08 10.9016 25.3226 13.7189C25.3199 13.8143 25.2878 13.9065 25.2306 13.9829C25.1706 14.0416 25.08 14.1003 24.988 14.1003H23.4093C23.3326 14.0984 23.2586 14.0716 23.1985 14.024C23.1384 13.9764 23.0954 13.9105 23.076 13.8363C22.7106 12.2229 21.7693 11.6936 19.28 11.6936C16.4853 11.6936 16.152 12.6323 16.152 13.3363C16.152 14.1883 16.5466 14.4523 20.312 14.9216C24.0466 15.3909 25.808 16.0656 25.808 18.5883C25.7773 21.1723 23.592 22.6389 19.7346 22.6389Z" fill="black"/>
</g>
<defs>
<clipPath id="clip0">
<rect width="32" height="32" fill="white"/>
</clipPath>
</defs>
</svg>
