<svg xmlns="http://www.w3.org/2000/svg" width="32" height="32" fill="none" viewBox="0 0 32 32"><g clip-path="url(#clip0)"><path fill="#000" d="M15.092 22.146C15.077 22.176 15.062 22.2 15.092 22.146V22.146ZM27.548 17.796C26.542 17.796 25.55 18.026 24.648 18.471C24.353 17.876 24.048 17.356 23.998 16.966C23.938 16.511 23.873 16.241 23.943 15.701C24.013 15.161 24.328 14.396 24.323 14.341C24.318 14.286 24.253 14.011 23.608 14.006C22.963 14.001 22.408 14.131 22.343 14.301C22.2288 14.6116 22.1402 14.931 22.078 15.256C21.963 15.841 20.789 17.931 20.124 19.021C19.904 18.596 19.719 18.221 19.679 17.921C19.619 17.466 19.554 17.196 19.624 16.656C19.694 16.116 20.009 15.351 20.004 15.296C19.999 15.241 19.934 14.966 19.29 14.961C18.646 14.956 18.09 15.086 18.025 15.256C17.96 15.426 17.89 15.826 17.76 16.211C17.63 16.596 16.065 20.076 15.656 20.981C15.446 21.441 15.266 21.811 15.136 22.061C15.116 22.101 15.101 22.126 15.091 22.146C15.106 22.121 15.116 22.096 15.116 22.106C15.006 22.321 14.941 22.441 14.941 22.441V22.446C14.856 22.606 14.761 22.751 14.716 22.751C14.686 22.751 14.621 22.331 14.731 21.756C14.966 20.546 15.521 18.666 15.516 18.601C15.511 18.566 15.621 18.241 15.151 18.066C14.696 17.901 14.531 18.176 14.491 18.176C14.451 18.176 14.421 18.276 14.421 18.276C14.421 18.276 14.926 16.156 13.451 16.156C12.531 16.156 11.251 17.166 10.622 18.081C10.227 18.296 9.37198 18.761 8.47198 19.256L7.43698 19.826C7.41198 19.801 7.39198 19.776 7.36698 19.751C5.57698 17.841 2.27298 16.491 2.41298 13.926C2.46298 12.991 2.78798 10.536 8.76698 7.55597C13.667 5.11597 17.584 5.78597 18.259 7.27597C19.229 9.40097 16.164 13.356 11.076 13.926C9.13598 14.141 8.11698 13.391 7.86198 13.111C7.59698 12.816 7.55698 12.801 7.45698 12.856C7.29198 12.946 7.39698 13.206 7.45698 13.361C7.60698 13.756 8.23198 14.456 9.29698 14.806C10.232 15.111 12.506 15.281 15.255 14.216C18.344 13.026 20.749 9.71097 20.043 6.93597C19.325 4.11597 14.649 3.19097 10.228 4.76097C7.59298 5.69597 4.74398 7.16597 2.69498 9.08097C0.259976 11.361 -0.129024 13.346 0.030976 14.176C0.600976 17.121 4.65998 19.041 6.28398 20.461L6.05898 20.586C5.24398 20.991 2.14998 22.611 1.37498 24.321C0.499976 26.261 1.51998 27.651 2.18898 27.841C4.27898 28.421 6.41798 27.376 7.56798 25.661C8.71798 23.946 8.57798 21.706 8.04798 20.686C8.04298 20.671 8.03298 20.661 8.02798 20.646C8.62795 20.2906 9.23301 19.9439 9.84298 19.606C9.64298 20.146 9.49798 20.796 9.42298 21.736C9.33298 22.836 9.78798 24.261 10.378 24.821C10.638 25.066 10.952 25.071 11.148 25.071C11.838 25.071 12.148 24.501 12.493 23.821C12.918 22.991 13.293 22.026 13.293 22.026C13.293 22.026 12.823 24.636 14.108 24.636C14.578 24.636 15.048 24.031 15.258 23.721V23.726C15.258 23.726 15.268 23.706 15.293 23.666C15.343 23.591 15.368 23.546 15.368 23.546V23.531C15.558 23.206 15.973 22.461 16.598 21.231C17.408 19.641 18.182 17.656 18.182 17.656C18.257 18.092 18.361 18.523 18.492 18.946C18.632 19.421 18.927 19.941 19.162 20.446C18.972 20.706 18.857 20.856 18.857 20.856C18.857 20.86 18.859 20.863 18.862 20.866C18.712 21.066 18.542 21.281 18.367 21.491C17.728 22.251 16.967 23.121 16.867 23.371C16.747 23.666 16.777 23.886 17.007 24.056C17.177 24.186 17.477 24.206 17.792 24.181C18.367 24.141 18.772 24.001 18.967 23.911C19.3266 23.7821 19.6666 23.6037 19.977 23.381C20.602 22.921 20.982 22.261 20.947 21.391C20.927 20.911 20.772 20.431 20.582 19.981C20.637 19.901 20.697 19.816 20.752 19.731C21.4026 18.7601 21.9889 17.7476 22.507 16.7C22.582 17.136 22.685 17.567 22.817 17.99C22.937 18.395 23.172 18.84 23.387 19.275C22.457 20.03 21.882 20.905 21.683 21.48C21.313 22.545 21.603 23.025 22.148 23.135C22.393 23.185 22.743 23.07 23.003 22.96C23.389 22.831 23.753 22.644 24.082 22.405C24.707 21.945 25.312 21.3 25.271 20.425C25.256 20.03 25.146 19.635 25.001 19.255C25.786 18.925 26.806 18.745 28.106 18.895C30.89 19.22 31.435 20.96 31.33 21.685C31.225 22.41 30.64 22.815 30.445 22.935C30.25 23.055 30.19 23.1 30.205 23.19C30.23 23.32 30.32 23.315 30.485 23.285C30.715 23.245 31.945 22.695 32 21.35C32.08 19.65 30.445 17.78 27.55 17.795L27.548 17.796ZM6.08898 25.031C5.16898 26.036 3.87998 26.416 3.32498 26.096C2.72998 25.75 2.96498 24.271 4.09898 23.2C4.78898 22.55 5.67898 21.95 6.26898 21.58C6.40398 21.5 6.59898 21.38 6.83898 21.235C6.85848 21.2225 6.8785 21.2108 6.89898 21.2C6.94398 21.17 6.99398 21.145 7.04398 21.115C7.45798 22.635 7.05898 23.975 6.08898 25.03V25.031ZM12.807 20.461C12.487 21.246 11.813 23.246 11.402 23.141C11.052 23.051 10.837 21.526 11.332 20.026C11.582 19.271 12.112 18.371 12.427 18.021C12.932 17.456 13.487 17.276 13.617 17.501C13.792 17.796 13.007 19.971 12.807 20.461ZM18.357 23.111C18.222 23.181 18.097 23.226 18.037 23.191C17.992 23.166 18.092 23.071 18.092 23.071C18.092 23.071 18.787 22.326 19.062 21.986C19.222 21.786 19.407 21.551 19.607 21.291C19.607 21.316 19.612 21.341 19.612 21.371C19.606 22.266 18.746 22.871 18.356 23.111H18.357ZM22.637 22.136C22.537 22.066 22.552 21.831 22.887 21.101C23.017 20.816 23.317 20.336 23.837 19.876C23.896 20.05 23.928 20.232 23.932 20.416C23.927 21.541 23.122 21.961 22.637 22.136Z"/></g><defs><clipPath id="clip0"><rect width="32" height="32" fill="#fff"/></clipPath></defs></svg>